<svg xmlns="http://www.w3.org/2000/svg" width="262" height="50.254"><g data-name="Group 4"><g data-name="Group 2"><g data-name="Group 1" fill="#3c3c3b"><path data-name="Path 1" d="M70.723 37.696a7.534 7.534 0 0 1-3.15-2.936 8.5 8.5 0 0 1-1.12-4.4v-16.4a.424.424 0 0 1 .427-.427h3.27a.424.424 0 0 1 .427.427v16.477a4.623 4.623 0 0 0 1.317 3.417 5.278 5.278 0 0 0 6.976 0 4.624 4.624 0 0 0 1.316-3.417V13.96a.426.426 0 0 1 .428-.427h3.274a.424.424 0 0 1 .427.427v16.4a8.608 8.608 0 0 1-1.1 4.4 7.42 7.42 0 0 1-3.132 2.936 11.124 11.124 0 0 1-9.359 0z"/><path data-name="Path 2" d="M102.238 21.677a6.261 6.261 0 0 1 1.726 4.661v11.673a.426.426 0 0 1-.427.427h-3.274a.425.425 0 0 1-.427-.427V27.198a3.78 3.78 0 0 0-.925-2.651 3.162 3.162 0 0 0-2.456-1.015 3.251 3.251 0 0 0-2.474 1 3.677 3.677 0 0 0-.943 2.634V38.02a.425.425 0 0 1-.427.427h-3.273a.425.425 0 0 1-.427-.427V20.685a.425.425 0 0 1 .427-.427h3.274a.425.425 0 0 1 .427.427v1.139a.143.143 0 0 0 .072.142c.047.024.082 0 .106-.072a5.19 5.19 0 0 1 4.41-1.917 6.264 6.264 0 0 1 4.611 1.7z"/><path data-name="Path 3" d="M108.801 17.056a2.669 2.669 0 1 1 1.815.712 2.454 2.454 0 0 1-1.815-.712zm-.2 21.263a.409.409 0 0 1-.125-.3V20.65a.425.425 0 0 1 .427-.427h3.274a.425.425 0 0 1 .427.427v17.366a.426.426 0 0 1-.427.427h-3.274a.407.407 0 0 1-.298-.124z"/><path data-name="Path 4" d="M128.747 20.383a.411.411 0 0 1 .3-.125h3.274a.425.425 0 0 1 .427.427v24.057a.425.425 0 0 1-.427.427h-3.274a.425.425 0 0 1-.427-.427v-7.723c0-.071-.023-.112-.071-.124a.148.148 0 0 0-.142.053 5.113 5.113 0 0 1-4.021 1.78 7.055 7.055 0 0 1-4.378-1.317 7.354 7.354 0 0 1-2.526-3.665 13.78 13.78 0 0 1-.605-4.342 14.279 14.279 0 0 1 .641-4.448 7.356 7.356 0 0 1 2.527-3.665 6.88 6.88 0 0 1 4.27-1.317 5.106 5.106 0 0 1 4.092 1.851c.047.071.095.1.142.071a.142.142 0 0 0 .071-.142v-1.068a.411.411 0 0 1 .127-.303zm-.16 8.95a8.536 8.536 0 0 0-.819-4.127 3.1 3.1 0 0 0-2.808-1.71 3.262 3.262 0 0 0-3.025 1.744 8.655 8.655 0 0 0-.854 4.092 7.841 7.841 0 0 0 1.068 4.342 3.275 3.275 0 0 0 2.847 1.494 3.011 3.011 0 0 0 2.7-1.566 8.3 8.3 0 0 0 .89-4.27z"/><path data-name="Path 5" d="M148.248 20.383a.411.411 0 0 1 .3-.125h3.239a.426.426 0 0 1 .427.427v17.331a.413.413 0 0 1-.125.3.409.409 0 0 1-.3.125h-3.239a.426.426 0 0 1-.427-.427v-1.139a.143.143 0 0 0-.071-.142c-.048-.023-.1 0-.143.071a5.19 5.19 0 0 1-4.377 1.885 6.737 6.737 0 0 1-4.537-1.566 5.529 5.529 0 0 1-1.833-4.448v-11.99a.425.425 0 0 1 .427-.427h3.275a.425.425 0 0 1 .427.427v10.818a3.907 3.907 0 0 0 .872 2.67 3.066 3.066 0 0 0 2.438 1 3.394 3.394 0 0 0 2.562-1 3.684 3.684 0 0 0 .961-2.67V20.685a.411.411 0 0 1 .124-.302z"/><path data-name="Path 6" d="M172.109 29.297l-.036 1.1a.378.378 0 0 1-.427.427h-11.139a.157.157 0 0 0-.178.178 5.087 5.087 0 0 0 .321 1.6q.853 2.562 4.164 2.6a4.485 4.485 0 0 0 3.843-1.993.418.418 0 0 1 .356-.214.342.342 0 0 1 .249.107l2.206 1.815a.38.38 0 0 1 .107.57 7.265 7.265 0 0 1-2.936 2.42 9.53 9.53 0 0 1-4.075.854 8.543 8.543 0 0 1-4.716-1.245 7.166 7.166 0 0 1-2.829-3.488 13.987 13.987 0 0 1-.818-5.338 10.822 10.822 0 0 1 .427-3.345 7.141 7.141 0 0 1 2.687-3.932 7.839 7.839 0 0 1 4.751-1.436q7.01 0 7.9 7.331a12.733 12.733 0 0 1 .143 1.989zm-10.232-5.107a3.474 3.474 0 0 0-1.227 1.832 6.149 6.149 0 0 0-.285 1.566c-.047.12 0 .178.142.178h7.225a.157.157 0 0 0 .178-.178 6.805 6.805 0 0 0-.214-1.352 3.451 3.451 0 0 0-1.263-1.993 3.818 3.818 0 0 0-2.366-.712 3.526 3.526 0 0 0-2.189.66z"/><path data-name="Path 7" d="M187.144 20.383a.411.411 0 0 1 .3-.125h3.274a.426.426 0 0 1 .427.427v16.548q0 4.448-2.544 6.352a10.864 10.864 0 0 1-6.673 1.9q-1.1 0-2.171-.106a.4.4 0 0 1-.391-.463l.107-2.918q0-.391.5-.391a18.3 18.3 0 0 0 1.85.107 6.087 6.087 0 0 0 3.932-1.05 4.373 4.373 0 0 0 1.263-3.541v-.285c0-.071-.024-.112-.071-.124a.148.148 0 0 0-.142.053 5.364 5.364 0 0 1-4.128 1.566 7.968 7.968 0 0 1-4.235-1.174 6.153 6.153 0 0 1-2.669-3.595 16.545 16.545 0 0 1-.463-4.306 13.848 13.848 0 0 1 .57-4.52 6.876 6.876 0 0 1 2.456-3.47 6.662 6.662 0 0 1 4.092-1.3 5.772 5.772 0 0 1 4.377 1.637c.047.071.095.1.142.071a.144.144 0 0 0 .071-.143v-.854a.411.411 0 0 1 .126-.296zm-.178 10.854q.053-.622.053-2.01 0-1.352-.053-1.94a5.564 5.564 0 0 0-.231-1.157 3.549 3.549 0 0 0-5.552-1.886 3.944 3.944 0 0 0-1.281 1.886 8.485 8.485 0 0 0-.427 3.132 9.3 9.3 0 0 0 .356 3.1 3.7 3.7 0 0 0 1.3 1.868 3.581 3.581 0 0 0 2.26.729 3.248 3.248 0 0 0 3.381-2.562 6.785 6.785 0 0 0 .194-1.161z"/><path data-name="Path 8" d="M205.88 20.507a.443.443 0 0 1 .214.534l-.606 3.2c-.024.284-.19.368-.5.249a3.934 3.934 0 0 0-1.246-.178 5.455 5.455 0 0 0-.711.035 3.679 3.679 0 0 0-2.492 1.05 3.407 3.407 0 0 0-1 2.544v10.073a.425.425 0 0 1-.427.427h-3.274a.425.425 0 0 1-.427-.427V20.685a.425.425 0 0 1 .427-.427h3.274a.425.425 0 0 1 .427.427v1.6c0 .095.019.148.054.16s.077-.018.124-.089a4.7 4.7 0 0 1 4.164-2.313 4.129 4.129 0 0 1 1.999.464z"/><path data-name="Path 9" d="M223.923 29.297l-.036 1.1a.378.378 0 0 1-.427.427h-11.139a.157.157 0 0 0-.178.178 5.087 5.087 0 0 0 .321 1.6q.854 2.562 4.164 2.6a4.485 4.485 0 0 0 3.843-1.993.419.419 0 0 1 .356-.214.342.342 0 0 1 .249.107l2.206 1.815a.379.379 0 0 1 .107.57 7.262 7.262 0 0 1-2.936 2.42 9.529 9.529 0 0 1-4.075.854 8.546 8.546 0 0 1-4.716-1.245 7.169 7.169 0 0 1-2.829-3.488 14 14 0 0 1-.818-5.338 10.8 10.8 0 0 1 .427-3.345 7.14 7.14 0 0 1 2.686-3.932 7.84 7.84 0 0 1 4.753-1.436q7.01 0 7.9 7.331a12.8 12.8 0 0 1 .142 1.989zm-10.232-5.107a3.478 3.478 0 0 0-1.227 1.832 6.154 6.154 0 0 0-.285 1.566c-.048.12 0 .178.142.178h7.225a.157.157 0 0 0 .178-.178 6.851 6.851 0 0 0-.214-1.352 3.456 3.456 0 0 0-1.263-1.993 3.819 3.819 0 0 0-2.366-.712 3.527 3.527 0 0 0-2.189.66z"/><path data-name="Path 10" d="M243.176 29.297l-.036 1.1a.377.377 0 0 1-.427.427h-11.139a.157.157 0 0 0-.178.178 5.091 5.091 0 0 0 .32 1.6q.854 2.562 4.164 2.6a4.485 4.485 0 0 0 3.843-1.993.419.419 0 0 1 .356-.214.342.342 0 0 1 .249.107l2.206 1.815a.38.38 0 0 1 .107.57 7.267 7.267 0 0 1-2.936 2.42 9.529 9.529 0 0 1-4.075.854 8.546 8.546 0 0 1-4.716-1.245 7.169 7.169 0 0 1-2.829-3.488 14 14 0 0 1-.818-5.338 10.819 10.819 0 0 1 .427-3.345 7.14 7.14 0 0 1 2.686-3.932 7.84 7.84 0 0 1 4.753-1.436q7.01 0 7.9 7.331a12.725 12.725 0 0 1 .143 1.989zm-10.232-5.107a3.479 3.479 0 0 0-1.228 1.832 6.173 6.173 0 0 0-.285 1.566c-.048.12 0 .178.142.178h7.224a.157.157 0 0 0 .178-.178 6.8 6.8 0 0 0-.214-1.352 3.451 3.451 0 0 0-1.263-1.993 3.819 3.819 0 0 0-2.366-.712 3.525 3.525 0 0 0-2.188.66z"/><path data-name="Path 11" d="M260.274 21.677A6.263 6.263 0 0 1 262 26.338v11.673a.425.425 0 0 1-.427.427h-3.27a.425.425 0 0 1-.427-.427V27.198a3.778 3.778 0 0 0-.926-2.651 3.162 3.162 0 0 0-2.456-1.015 3.25 3.25 0 0 0-2.473 1 3.674 3.674 0 0 0-.943 2.634V38.02a.426.426 0 0 1-.427.427h-3.274a.426.426 0 0 1-.427-.427V20.685a.426.426 0 0 1 .427-.427h3.274a.426.426 0 0 1 .427.427v1.139a.144.144 0 0 0 .071.142q.071.036.107-.072a5.189 5.189 0 0 1 4.41-1.917 6.265 6.265 0 0 1 4.608 1.7z"/></g></g><g data-name="Group 3"><path data-name="Path 12" d="M43.228 25.001V8.958h-7.221v16.043a10.751 10.751 0 0 1-21.5 0V8.958H7.228v16.043a18.03 18.03 0 0 0 36.059 0z" fill="#dedc00"/><path data-name="Path 13" d="M28.836 21.418v7.165h14.09A18.031 18.031 0 1 1 21.67 7.327V-.001a25.255 25.255 0 1 0 28.836 25v-3.583z" fill="#00ad00"/></g></g></svg>